# xmcd
# Copyright (C) 1995-1998 Ti Kan
#
# Track frame offsets:
#       150
#       14895
#       32413
#       51192
#       69124
#       88721
#       94347
#       106510
#       122501
#       136769
#       150232
#
# Disc length: 2272 seconds
#
# Revision: 0
# Processed by: cddbd v1.5.2PL0 Copyright (c) Steve Scherf et al.
# Submitted via: CD-Import v1.0
#
DISCID=7b08de0b
DTITLE=Goldin and Bit-Tuner - Fantasy Is Fucked
DYEAR=1900
DGENRE=
TTITLE0=König
TTITLE1=Up In Smoke
TTITLE2=Yeah Baby
TTITLE3=Heavy Trafic
TTITLE4=Morn
TTITLE5=Dope Skit
TTITLE6=Walter Stürm
TTITLE7=Dopeathon
TTITLE8=God Bless The Freaky Flow
TTITLE9=Cocaine Cowboys
TTITLE10=Key To The Universe
EXTD=
EXTT0=
EXTT1=
EXTT2=
EXTT3=
EXTT4=
EXTT5=
EXTT6=
EXTT7=
EXTT8=
EXTT9=
EXTT10=
PLAYORDER=
